<?xml version="1.0" encoding="UTF-8"?>
<svg id="Layer_1" data-name="Layer 1" xmlns="http://www.w3.org/2000/svg" viewBox="0 0 512 512">
  <defs>
    <style>
      .cls-1 {
        fill: #053f5f;
      }

      .cls-2 {
        fill: #071f2c;
      }

      .cls-3 {
        fill: #6acef5;
      }

      .cls-3, .cls-4 {
        fill-rule: evenodd;
      }

      .cls-4 {
        fill: #fedd00;
      }
    </style>
  </defs>
  <rect class="cls-1" width="512" height="512"/>
  <g>
    <path class="cls-3" d="m256,34.79c-122.17,0-221.21,99.04-221.21,221.21s99.04,221.21,221.21,221.21,221.21-99.04,221.21-221.21S378.17,34.79,256,34.79Zm0,420.39c-110.01,0-199.19-89.18-199.19-199.19S145.99,56.81,256,56.81s199.19,89.18,199.19,199.19-89.18,199.19-199.19,199.19Z"/>
    <polygon class="cls-2" points="395.37 51.01 395.41 81.07 301.57 164.48 350.28 156.26 350.32 186.32 287.79 269.69 320.18 261.47 320.22 291.57 245.07 472.01 230 456.9 242.92 341.01 199.94 351.73 184.91 336.66 222.76 235.89 169.88 246.48 154.8 231.41 214.97 96.1 395.37 51.01"/>
    <polygon class="cls-4" points="395.37 51.01 214.97 96.1 154.8 231.41 230.04 216.56 184.91 336.66 245.07 321.79 229.99 456.9 320.18 261.47 260.1 276.69 350.28 156.26 260.1 171.46 395.37 51.01"/>
  </g>
</svg>