<?xml version="1.0" encoding="UTF-8"?>
<svg id="animated" xmlns="http://www.w3.org/2000/svg" viewBox="0 0 1671.56 358.75">
  <defs>
    <style>
      .cls-1 {
        fill: #fff;
        fill-rule: evenodd;
      }
    </style>
  </defs>
  <g id="bolt">
    <g>
      <path class="cls-1" d="m862.48,134.61c-24.72,0-44.76,20.04-44.76,44.76s20.04,44.76,44.76,44.76,44.76-20.04,44.76-44.76-20.04-44.76-44.76-44.76Zm0,85.06c-22.26,0-40.3-18.04-40.3-40.3s18.04-40.3,40.3-40.3,40.3,18.04,40.3,40.3-18.04,40.3-40.3,40.3Z"/>
      <polygon class="cls-1" points="890.68 137.89 854.18 147.02 842.01 174.4 857.23 171.39 848.1 195.69 860.27 192.68 857.22 220.02 875.47 180.48 863.31 183.56 881.56 159.19 863.31 162.27 890.68 137.89"/>
    </g>
  </g>
</svg>